<svg xmlns="http://www.w3.org/2000/svg" width="7.34" height="10.97" viewBox="0 0 7.34 10.97">
  <defs>
    <style>
      .cls-1 {
        fill: #d92e27;
        fill-rule: evenodd;
      }
    </style>
  </defs>
  <path id="Forma_1_копия_9_copy" data-name="Forma 1 копия 9 copy" class="cls-1" d="M1410.39,4820.9l5.36-5.25a0.212,0.212,0,0,0,0-.31l-5.37-5.25a0.211,0.211,0,0,0-.16-0.06,0.245,0.245,0,0,0-.16.06l-1.48,1.45a0.227,0.227,0,0,0-.06.16,0.22,0.22,0,0,0,.06.15l3.73,3.65-3.73,3.64a0.243,0.243,0,0,0,0,.32l1.48,1.44A0.235,0.235,0,0,0,1410.39,4820.9Z" transform="translate(-1408.5 -4810.03)"/>
</svg>
